<?xml version="1.0" encoding="UTF-8"?>
<!DOCTYPE svg PUBLIC "-//W3C//DTD SVG 1.1//EN" "http://www.w3.org/Graphics/SVG/1.1/DTD/svg11.dtd">
<svg version="1.2" width="90mm" height="80mm" viewBox="0 0 9000 8000" preserveAspectRatio="xMidYMid" fill-rule="evenodd" clip-path="url(#presentation_clip_path)" stroke-width="28.222" stroke-linejoin="round" xmlns="http://www.w3.org/2000/svg" xmlns:ooo="http://xml.openoffice.org/svg/export" xmlns:xlink="http://www.w3.org/1999/xlink" xml:space="preserve">
 <defs class="ClipPathGroup">
  <clipPath id="presentation_clip_path" clipPathUnits="userSpaceOnUse">
   <rect x="0" y="0" width="9000" height="8000"/>
  </clipPath>
 </defs>
 <defs class="TextShapeIndex">
  <g ooo:slide="id1" ooo:id-list="id3 id4 id5 id6 id7 id8 id9 id10 id11 id12 id13 id14 id15 id16 id17 id18 id19 id20 id21 id22 id23 id24"/>
 </defs>
 <defs class="EmbeddedBulletChars">
  <g id="bullet-char-template(57356)" transform="scale(0.00048828125,-0.00048828125)">
   <path d="M 580,1141 L 1163,571 580,0 -4,571 580,1141 Z"/>
  </g>
  <g id="bullet-char-template(57354)" transform="scale(0.00048828125,-0.00048828125)">
   <path d="M 8,1128 L 1137,1128 1137,0 8,0 8,1128 Z"/>
  </g>
  <g id="bullet-char-template(10146)" transform="scale(0.00048828125,-0.00048828125)">
   <path d="M 174,0 L 602,739 174,1481 1456,739 174,0 Z M 1358,739 L 309,1346 659,739 1358,739 Z"/>
  </g>
  <g id="bullet-char-template(10132)" transform="scale(0.00048828125,-0.00048828125)">
   <path d="M 2015,739 L 1276,0 717,0 1260,543 174,543 174,936 1260,936 717,1481 1274,1481 2015,739 Z"/>
  </g>
  <g id="bullet-char-template(10007)" transform="scale(0.00048828125,-0.00048828125)">
   <path d="M 0,-2 C -7,14 -16,27 -25,37 L 356,567 C 262,823 215,952 215,954 215,979 228,992 255,992 264,992 276,990 289,987 310,991 331,999 354,1012 L 381,999 492,748 772,1049 836,1024 860,1049 C 881,1039 901,1025 922,1006 886,937 835,863 770,784 769,783 710,716 594,584 L 774,223 C 774,196 753,168 711,139 L 727,119 C 717,90 699,76 672,76 641,76 570,178 457,381 L 164,-76 C 142,-110 111,-127 72,-127 30,-127 9,-110 8,-76 1,-67 -2,-52 -2,-32 -2,-23 -1,-13 0,-2 Z"/>
  </g>
  <g id="bullet-char-template(10004)" transform="scale(0.00048828125,-0.00048828125)">
   <path d="M 285,-33 C 182,-33 111,30 74,156 52,228 41,333 41,471 41,549 55,616 82,672 116,743 169,778 240,778 293,778 328,747 346,684 L 369,508 C 377,444 397,411 428,410 L 1163,1116 C 1174,1127 1196,1133 1229,1133 1271,1133 1292,1118 1292,1087 L 1292,965 C 1292,929 1282,901 1262,881 L 442,47 C 390,-6 338,-33 285,-33 Z"/>
  </g>
  <g id="bullet-char-template(9679)" transform="scale(0.00048828125,-0.00048828125)">
   <path d="M 813,0 C 632,0 489,54 383,161 276,268 223,411 223,592 223,773 276,916 383,1023 489,1130 632,1184 813,1184 992,1184 1136,1130 1245,1023 1353,916 1407,772 1407,592 1407,412 1353,268 1245,161 1136,54 992,0 813,0 Z"/>
  </g>
  <g id="bullet-char-template(8226)" transform="scale(0.00048828125,-0.00048828125)">
   <path d="M 346,457 C 273,457 209,483 155,535 101,586 74,649 74,723 74,796 101,859 155,911 209,963 273,989 346,989 419,989 480,963 531,910 582,859 608,796 608,723 608,648 583,586 532,535 482,483 420,457 346,457 Z"/>
  </g>
  <g id="bullet-char-template(8211)" transform="scale(0.00048828125,-0.00048828125)">
   <path d="M -4,459 L 1135,459 1135,606 -4,606 -4,459 Z"/>
  </g>
 </defs>
 <defs class="TextEmbeddedBitmaps"/>
 <g>
  <g id="id2" class="Master_Slide">
   <g id="bg-id2" class="Background"/>
   <g id="bo-id2" class="BackgroundObjects"/>
  </g>
 </g>
 <g class="SlideGroup">
  <g>
   <g id="id1" class="Slide" clip-path="url(#presentation_clip_path)">
    <g class="Page">
     <g class="com.sun.star.drawing.CustomShape">
      <g id="id3">
       <path fill="none" stroke="rgb(0,0,0)" d="M 2400,6900 L 1000,6900 1000,1000 3800,1000 3800,6900 2400,6900 Z"/>
       <text class="TextShape"><tspan class="TextParagraph" font-family="Arial, sans-serif" font-size="282px" font-weight="400"><tspan class="TextPosition" x="1250" y="1383"><tspan fill="rgb(0,0,0)" stroke="none">EPD</tspan></tspan></tspan></text>
      </g>
     </g>
     <g class="com.sun.star.drawing.CustomShape">
      <g id="id4">
       <path fill="rgb(230,230,230)" stroke="none" d="M 2377,6100 L 1154,6100 1154,2700 3600,2700 3600,6100 2377,6100 Z"/>
       <path fill="none" stroke="rgb(0,0,0)" d="M 2377,6100 L 1154,6100 1154,2700 3600,2700 3600,6100 2377,6100 Z"/>
       <text class="TextShape"><tspan class="TextParagraph" font-family="Arial, sans-serif" font-size="282px" font-style="italic" font-weight="400"><tspan class="TextPosition" x="1404" y="3083"><tspan fill="rgb(0,0,0)" stroke="none">Sections</tspan></tspan></tspan></text>
      </g>
     </g>
     <g class="com.sun.star.drawing.CustomShape">
      <g id="id5">
       <path fill="rgb(230,230,230)" stroke="none" d="M 2377,6700 L 1154,6700 1154,6200 3600,6200 3600,6700 2377,6700 Z"/>
       <path fill="none" stroke="rgb(0,0,0)" d="M 2377,6700 L 1154,6700 1154,6200 3600,6200 3600,6700 2377,6700 Z"/>
       <text class="TextShape"><tspan class="TextParagraph" font-family="Arial, sans-serif" font-size="282px" font-style="italic" font-weight="400"><tspan class="TextPosition" x="1404" y="6547"><tspan fill="rgb(0,0,0)" stroke="none">Signature</tspan></tspan></tspan></text>
      </g>
     </g>
     <g class="com.sun.star.drawing.CustomShape">
      <g id="id6">
       <path fill="rgb(230,230,230)" stroke="none" d="M 2377,2600 L 1154,2600 1154,2100 3600,2100 3600,2600 2377,2600 Z"/>
       <path fill="none" stroke="rgb(0,0,0)" d="M 2377,2600 L 1154,2600 1154,2100 3600,2100 3600,2600 2377,2600 Z"/>
       <text class="TextShape"><tspan class="TextParagraph" font-family="Arial, sans-serif" font-size="282px" font-style="italic" font-weight="400"><tspan class="TextPosition" x="1404" y="2447"><tspan fill="rgb(0,0,0)" stroke="none">Contacts</tspan></tspan></tspan></text>
      </g>
     </g>
     <g class="com.sun.star.drawing.CustomShape">
      <g id="id7">
       <path fill="rgb(255,255,255)" stroke="none" d="M 1431,3800 C 1410,3800 1390,3820 1390,3841 L 1390,4205 C 1390,4226 1410,4247 1431,4247 L 3359,4247 C 3380,4247 3401,4226 3401,4205 L 3401,3841 C 3401,3820 3380,3800 3359,3800 L 1431,3800 Z M 1390,3800 L 1390,3800 Z M 3401,4247 L 3401,4247 Z"/>
       <path fill="none" stroke="rgb(0,0,0)" d="M 1431,3800 C 1410,3800 1390,3820 1390,3841 L 1390,4205 C 1390,4226 1410,4247 1431,4247 L 3359,4247 C 3380,4247 3401,4226 3401,4205 L 3401,3841 C 3401,3820 3380,3800 3359,3800 L 1431,3800 Z"/>
       <path fill="none" stroke="rgb(0,0,0)" d="M 1390,3800 L 1390,3800 Z"/>
       <path fill="none" stroke="rgb(0,0,0)" d="M 3401,4247 L 3401,4247 Z"/>
       <text class="TextShape"><tspan class="TextParagraph" font-family="Arial, sans-serif" font-size="282px" font-weight="400"><tspan class="TextPosition" x="1652" y="4120"><tspan fill="rgb(0,0,0)" stroke="none">Friends</tspan></tspan></tspan></text>
      </g>
     </g>
     <g class="com.sun.star.drawing.CustomShape">
      <g id="id8">
       <path fill="rgb(255,255,255)" stroke="none" d="M 1431,4354 C 1410,4354 1390,4374 1390,4395 L 1390,4759 C 1390,4780 1410,4801 1431,4801 L 3359,4801 C 3380,4801 3401,4780 3401,4759 L 3401,4395 C 3401,4374 3380,4354 3359,4354 L 1431,4354 Z M 1390,4354 L 1390,4354 Z M 3401,4801 L 3401,4801 Z"/>
       <path fill="none" stroke="rgb(0,0,0)" d="M 1431,4354 C 1410,4354 1390,4374 1390,4395 L 1390,4759 C 1390,4780 1410,4801 1431,4801 L 3359,4801 C 3380,4801 3401,4780 3401,4759 L 3401,4395 C 3401,4374 3380,4354 3359,4354 L 1431,4354 Z"/>
       <path fill="none" stroke="rgb(0,0,0)" d="M 1390,4354 L 1390,4354 Z"/>
       <path fill="none" stroke="rgb(0,0,0)" d="M 3401,4801 L 3401,4801 Z"/>
       <text class="TextShape"><tspan class="TextParagraph" font-family="Arial, sans-serif" font-size="282px" font-weight="400"><tspan class="TextPosition" x="1652" y="4674"><tspan fill="rgb(0,0,0)" stroke="none">Colleagues</tspan></tspan></tspan></text>
      </g>
     </g>
     <g class="com.sun.star.drawing.CustomShape">
      <g id="id9">
       <path fill="rgb(255,255,255)" stroke="none" d="M 1431,4900 C 1410,4900 1390,4920 1390,4941 L 1390,5305 C 1390,5326 1410,5347 1431,5347 L 3359,5347 C 3380,5347 3401,5326 3401,5305 L 3401,4941 C 3401,4920 3380,4900 3359,4900 L 1431,4900 Z M 1390,4900 L 1390,4900 Z M 3401,5347 L 3401,5347 Z"/>
       <path fill="none" stroke="rgb(0,0,0)" d="M 1431,4900 C 1410,4900 1390,4920 1390,4941 L 1390,5305 C 1390,5326 1410,5347 1431,5347 L 3359,5347 C 3380,5347 3401,5326 3401,5305 L 3401,4941 C 3401,4920 3380,4900 3359,4900 L 1431,4900 Z"/>
       <path fill="none" stroke="rgb(0,0,0)" d="M 1390,4900 L 1390,4900 Z"/>
       <path fill="none" stroke="rgb(0,0,0)" d="M 3401,5347 L 3401,5347 Z"/>
       <text class="TextShape"><tspan class="TextParagraph" font-family="Arial, sans-serif" font-size="282px" font-weight="400"><tspan class="TextPosition" x="1652" y="5220"><tspan fill="rgb(0,0,0)" stroke="none">...</tspan></tspan></tspan></text>
      </g>
     </g>
     <g class="com.sun.star.drawing.CustomShape">
      <g id="id10">
       <path fill="rgb(230,230,255)" stroke="none" d="M 1431,3254 C 1410,3254 1390,3274 1390,3295 L 1390,3659 C 1390,3680 1410,3701 1431,3701 L 3359,3701 C 3380,3701 3401,3680 3401,3659 L 3401,3295 C 3401,3274 3380,3254 3359,3254 L 1431,3254 Z M 1390,3254 L 1390,3254 Z M 3401,3701 L 3401,3701 Z"/>
       <path fill="none" stroke="rgb(0,0,0)" d="M 1431,3254 C 1410,3254 1390,3274 1390,3295 L 1390,3659 C 1390,3680 1410,3701 1431,3701 L 3359,3701 C 3380,3701 3401,3680 3401,3659 L 3401,3295 C 3401,3274 3380,3254 3359,3254 L 1431,3254 Z"/>
       <path fill="none" stroke="rgb(0,0,0)" d="M 1390,3254 L 1390,3254 Z"/>
       <path fill="none" stroke="rgb(0,0,0)" d="M 3401,3701 L 3401,3701 Z"/>
       <text class="TextShape"><tspan class="TextParagraph" font-family="Arial, sans-serif" font-size="282px" font-weight="400"><tspan class="TextPosition" x="1652" y="3574"><tspan fill="rgb(0,0,0)" stroke="none">Public</tspan></tspan></tspan></text>
      </g>
     </g>
     <g class="com.sun.star.drawing.CustomShape">
      <g id="id11">
       <path fill="rgb(230,230,255)" stroke="none" d="M 1431,5454 C 1410,5454 1390,5474 1390,5495 L 1390,5859 C 1390,5880 1410,5901 1431,5901 L 3359,5901 C 3380,5901 3401,5880 3401,5859 L 3401,5495 C 3401,5474 3380,5454 3359,5454 L 1431,5454 Z M 1390,5454 L 1390,5454 Z M 3401,5901 L 3401,5901 Z"/>
       <path fill="none" stroke="rgb(0,0,0)" d="M 1431,5454 C 1410,5454 1390,5474 1390,5495 L 1390,5859 C 1390,5880 1410,5901 1431,5901 L 3359,5901 C 3380,5901 3401,5880 3401,5859 L 3401,5495 C 3401,5474 3380,5454 3359,5454 L 1431,5454 Z"/>
       <path fill="none" stroke="rgb(0,0,0)" d="M 1390,5454 L 1390,5454 Z"/>
       <path fill="none" stroke="rgb(0,0,0)" d="M 3401,5901 L 3401,5901 Z"/>
       <text class="TextShape"><tspan class="TextParagraph" font-family="Arial, sans-serif" font-size="282px" font-weight="400"><tspan class="TextPosition" x="1652" y="5774"><tspan fill="rgb(0,0,0)" stroke="none">Private</tspan></tspan></tspan></text>
      </g>
     </g>
     <g class="com.sun.star.drawing.CustomShape">
      <g id="id12">
       <path fill="rgb(230,230,230)" stroke="none" d="M 2377,2000 L 1154,2000 1154,1500 3600,1500 3600,2000 2377,2000 Z"/>
       <path fill="none" stroke="rgb(0,0,0)" d="M 2377,2000 L 1154,2000 1154,1500 3600,1500 3600,2000 2377,2000 Z"/>
       <text class="TextShape"><tspan class="TextParagraph" font-family="Arial, sans-serif" font-size="282px" font-style="italic" font-weight="400"><tspan class="TextPosition" x="1404" y="1847"><tspan fill="rgb(0,0,0)" stroke="none">Indentity</tspan></tspan></tspan></text>
      </g>
     </g>
     <g class="com.sun.star.drawing.CustomShape">
      <g id="id13">
       <path fill="none" stroke="rgb(0,0,0)" d="M 6600,2200 L 5200,2200 5200,1000 8000,1000 8000,2200 6600,2200 Z"/>
       <text class="TextShape"><tspan class="TextParagraph" font-family="Arial, sans-serif" font-size="282px" font-weight="400"><tspan class="TextPosition" x="5450" y="1383"><tspan fill="rgb(0,0,0)" stroke="none">Pulbic</tspan></tspan></tspan></text>
      </g>
     </g>
     <g class="com.sun.star.drawing.CustomShape">
      <g id="id14">
       <path fill="rgb(230,230,230)" stroke="none" d="M 6577,2000 L 5354,2000 5354,1500 7800,1500 7800,2000 6577,2000 Z"/>
       <path fill="none" stroke="rgb(0,0,0)" d="M 6577,2000 L 5354,2000 5354,1500 7800,1500 7800,2000 6577,2000 Z"/>
       <text class="TextShape"><tspan class="TextParagraph" font-family="Arial, sans-serif" font-size="282px" font-weight="400"><tspan class="TextPosition" x="5604" y="1847"><tspan fill="rgb(0,0,0)" stroke="none">Basic</tspan></tspan></tspan></text>
      </g>
     </g>
     <g class="com.sun.star.drawing.CustomShape">
      <g id="id15">
       <path fill="none" stroke="rgb(0,0,0)" d="M 6600,4800 L 5200,4800 5200,2400 8000,2400 8000,4800 6600,4800 Z"/>
       <text class="TextShape"><tspan class="TextParagraph" font-family="Arial, sans-serif" font-size="282px" font-weight="400"><tspan class="TextPosition" x="5450" y="2783"><tspan fill="rgb(0,0,0)" stroke="none">Friends</tspan></tspan></tspan></text>
      </g>
     </g>
     <g class="com.sun.star.drawing.CustomShape">
      <g id="id16">
       <path fill="rgb(230,230,230)" stroke="none" d="M 6577,3400 L 5354,3400 5354,2900 7800,2900 7800,3400 6577,3400 Z"/>
       <path fill="none" stroke="rgb(0,0,0)" d="M 6577,3400 L 5354,3400 5354,2900 7800,2900 7800,3400 6577,3400 Z"/>
       <text class="TextShape"><tspan class="TextParagraph" font-family="Arial, sans-serif" font-size="282px" font-weight="400"><tspan class="TextPosition" x="5604" y="3247"><tspan fill="rgb(0,0,0)" stroke="none">Personal</tspan></tspan></tspan></text>
      </g>
     </g>
     <g class="com.sun.star.drawing.CustomShape">
      <g id="id17">
       <path fill="rgb(230,230,230)" stroke="none" d="M 6577,4000 L 5354,4000 5354,3500 7800,3500 7800,4000 6577,4000 Z"/>
       <path fill="none" stroke="rgb(0,0,0)" d="M 6577,4000 L 5354,4000 5354,3500 7800,3500 7800,4000 6577,4000 Z"/>
       <text class="TextShape"><tspan class="TextParagraph" font-family="Arial, sans-serif" font-size="282px" font-weight="400"><tspan class="TextPosition" x="5604" y="3847"><tspan fill="rgb(0,0,0)" stroke="none">Feed</tspan></tspan></tspan></text>
      </g>
     </g>
     <g class="com.sun.star.drawing.CustomShape">
      <g id="id18">
       <path fill="none" stroke="rgb(0,0,0)" d="M 6600,6800 L 5200,6800 5200,5000 8000,5000 8000,6800 6600,6800 Z"/>
       <text class="TextShape"><tspan class="TextParagraph" font-family="Arial, sans-serif" font-size="282px" font-weight="400"><tspan class="TextPosition" x="5450" y="5383"><tspan fill="rgb(0,0,0)" stroke="none">Colleagues</tspan></tspan></tspan></text>
      </g>
     </g>
     <g class="com.sun.star.drawing.CustomShape">
      <g id="id19">
       <path fill="rgb(230,230,230)" stroke="none" d="M 6577,6000 L 5354,6000 5354,5500 7800,5500 7800,6000 6577,6000 Z"/>
       <path fill="none" stroke="rgb(0,0,0)" d="M 6577,6000 L 5354,6000 5354,5500 7800,5500 7800,6000 6577,6000 Z"/>
       <text class="TextShape"><tspan class="TextParagraph" font-family="Arial, sans-serif" font-size="282px" font-weight="400"><tspan class="TextPosition" x="5604" y="5847"><tspan fill="rgb(0,0,0)" stroke="none">Personal</tspan></tspan></tspan></text>
      </g>
     </g>
     <g class="com.sun.star.drawing.CustomShape">
      <g id="id20">
       <path fill="rgb(230,230,230)" stroke="none" d="M 6577,6600 L 5354,6600 5354,6100 7800,6100 7800,6600 6577,6600 Z"/>
       <path fill="none" stroke="rgb(0,0,0)" d="M 6577,6600 L 5354,6600 5354,6100 7800,6100 7800,6600 6577,6600 Z"/>
       <text class="TextShape"><tspan class="TextParagraph" font-family="Arial, sans-serif" font-size="282px" font-weight="400"><tspan class="TextPosition" x="5604" y="6447"><tspan fill="rgb(0,0,0)" stroke="none">Feed</tspan></tspan></tspan></text>
      </g>
     </g>
     <g class="com.sun.star.drawing.CustomShape">
      <g id="id21">
       <path fill="rgb(230,230,230)" stroke="none" d="M 6577,4600 L 5354,4600 5354,4100 7800,4100 7800,4600 6577,4600 Z"/>
       <path fill="none" stroke="rgb(0,0,0)" d="M 6577,4600 L 5354,4600 5354,4100 7800,4100 7800,4600 6577,4600 Z"/>
       <text class="TextShape"><tspan class="TextParagraph" font-family="Arial, sans-serif" font-size="282px" font-weight="400"><tspan class="TextPosition" x="5604" y="4447"><tspan fill="rgb(0,0,0)" stroke="none">Pictures</tspan></tspan></tspan></text>
      </g>
     </g>
     <g class="com.sun.star.drawing.ConnectorShape">
      <g id="id22">
       <path fill="none" stroke="rgb(0,0,0)" d="M 3400,3477 L 3435,3440"/>
       <path fill="none" stroke="rgb(0,0,0)" d="M 3471,3403 L 3506,3367"/>
       <path fill="none" stroke="rgb(0,0,0)" d="M 3541,3330 L 3576,3293"/>
       <path fill="none" stroke="rgb(0,0,0)" d="M 3612,3256 L 3647,3219"/>
       <path fill="none" stroke="rgb(0,0,0)" d="M 3682,3183 L 3718,3146"/>
       <path fill="none" stroke="rgb(0,0,0)" d="M 3753,3109 L 3788,3072"/>
       <path fill="none" stroke="rgb(0,0,0)" d="M 3824,3035 L 3859,2998"/>
       <path fill="none" stroke="rgb(0,0,0)" d="M 3894,2962 L 3929,2925"/>
       <path fill="none" stroke="rgb(0,0,0)" d="M 3965,2888 L 4000,2851"/>
       <path fill="none" stroke="rgb(0,0,0)" d="M 4035,2814 L 4071,2778"/>
       <path fill="none" stroke="rgb(0,0,0)" d="M 4106,2741 L 4141,2704"/>
       <path fill="none" stroke="rgb(0,0,0)" d="M 4177,2667 L 4212,2630"/>
       <path fill="none" stroke="rgb(0,0,0)" d="M 4247,2594 L 4282,2557"/>
       <path fill="none" stroke="rgb(0,0,0)" d="M 4318,2520 L 4353,2483"/>
       <path fill="none" stroke="rgb(0,0,0)" d="M 4388,2446 L 4424,2410"/>
       <path fill="none" stroke="rgb(0,0,0)" d="M 4459,2373 L 4494,2336"/>
       <path fill="none" stroke="rgb(0,0,0)" d="M 4530,2299 L 4565,2262"/>
       <path fill="none" stroke="rgb(0,0,0)" d="M 4600,2225 L 4635,2189"/>
       <path fill="none" stroke="rgb(0,0,0)" d="M 4671,2152 L 4706,2115"/>
       <path fill="none" stroke="rgb(0,0,0)" d="M 4741,2078 L 4777,2041"/>
       <path fill="none" stroke="rgb(0,0,0)" d="M 4812,2005 L 4847,1968"/>
       <path fill="none" stroke="rgb(0,0,0)" d="M 4883,1931 L 4918,1894"/>
       <path fill="none" stroke="rgb(0,0,0)" d="M 4953,1857 L 4988,1821"/>
       <path fill="none" stroke="rgb(0,0,0)" d="M 5024,1784 L 5059,1747"/>
       <path fill="rgb(0,0,0)" stroke="none" d="M 5200,1600 L 5134,1814 4989,1675 5200,1600 Z M 5179,1622 L 5014,1680 5127,1789 5179,1622 Z"/>
      </g>
     </g>
     <g class="com.sun.star.drawing.ConnectorShape">
      <g id="id23">
       <path fill="none" stroke="rgb(0,0,0)" d="M 3400,4023 L 3450,4011"/>
       <path fill="none" stroke="rgb(0,0,0)" d="M 3499,4000 L 3549,3988"/>
       <path fill="none" stroke="rgb(0,0,0)" d="M 3599,3976 L 3648,3965"/>
       <path fill="none" stroke="rgb(0,0,0)" d="M 3698,3953 L 3748,3941"/>
       <path fill="none" stroke="rgb(0,0,0)" d="M 3797,3930 L 3847,3918"/>
       <path fill="none" stroke="rgb(0,0,0)" d="M 3896,3906 L 3946,3895"/>
       <path fill="none" stroke="rgb(0,0,0)" d="M 3996,3883 L 4045,3871"/>
       <path fill="none" stroke="rgb(0,0,0)" d="M 4095,3860 L 4145,3848"/>
       <path fill="none" stroke="rgb(0,0,0)" d="M 4194,3836 L 4244,3825"/>
       <path fill="none" stroke="rgb(0,0,0)" d="M 4294,3813 L 4343,3801"/>
       <path fill="none" stroke="rgb(0,0,0)" d="M 4393,3790 L 4443,3778"/>
       <path fill="none" stroke="rgb(0,0,0)" d="M 4492,3766 L 4542,3755"/>
       <path fill="none" stroke="rgb(0,0,0)" d="M 4592,3743 L 4641,3731"/>
       <path fill="none" stroke="rgb(0,0,0)" d="M 4691,3720 L 4740,3708"/>
       <path fill="none" stroke="rgb(0,0,0)" d="M 4790,3696 L 4840,3685"/>
       <path fill="none" stroke="rgb(0,0,0)" d="M 4889,3673 L 4939,3661"/>
       <path fill="none" stroke="rgb(0,0,0)" d="M 4989,3650 L 5018,3643"/>
       <path fill="rgb(0,0,0)" stroke="none" d="M 5200,3600 L 5028,3743 4982,3548 5200,3600 Z M 5171,3607 L 5000,3566 5036,3719 5171,3607 Z"/>
      </g>
     </g>
     <g class="com.sun.star.drawing.ConnectorShape">
      <g id="id24">
       <path fill="none" stroke="rgb(0,0,0)" d="M 3400,4577 L 3441,4607"/>
       <path fill="none" stroke="rgb(0,0,0)" d="M 3482,4637 L 3523,4668"/>
       <path fill="none" stroke="rgb(0,0,0)" d="M 3564,4698 L 3605,4728"/>
       <path fill="none" stroke="rgb(0,0,0)" d="M 3647,4758 L 3688,4788"/>
       <path fill="none" stroke="rgb(0,0,0)" d="M 3729,4819 L 3770,4849"/>
       <path fill="none" stroke="rgb(0,0,0)" d="M 3811,4879 L 3852,4909"/>
       <path fill="none" stroke="rgb(0,0,0)" d="M 3893,4939 L 3934,4970"/>
       <path fill="none" stroke="rgb(0,0,0)" d="M 3975,5000 L 4016,5030"/>
       <path fill="none" stroke="rgb(0,0,0)" d="M 4058,5060 L 4099,5090"/>
       <path fill="none" stroke="rgb(0,0,0)" d="M 4140,5121 L 4181,5151"/>
       <path fill="none" stroke="rgb(0,0,0)" d="M 4222,5181 L 4263,5211"/>
       <path fill="none" stroke="rgb(0,0,0)" d="M 4304,5241 L 4345,5272"/>
       <path fill="none" stroke="rgb(0,0,0)" d="M 4386,5302 L 4427,5332"/>
       <path fill="none" stroke="rgb(0,0,0)" d="M 4468,5362 L 4510,5393"/>
       <path fill="none" stroke="rgb(0,0,0)" d="M 4551,5423 L 4592,5453"/>
       <path fill="none" stroke="rgb(0,0,0)" d="M 4633,5483 L 4674,5513"/>
       <path fill="none" stroke="rgb(0,0,0)" d="M 4715,5544 L 4756,5574"/>
       <path fill="none" stroke="rgb(0,0,0)" d="M 4797,5604 L 4838,5634"/>
       <path fill="none" stroke="rgb(0,0,0)" d="M 4879,5664 L 4920,5695"/>
       <path fill="none" stroke="rgb(0,0,0)" d="M 4962,5725 L 5003,5755"/>
       <path fill="none" stroke="rgb(0,0,0)" d="M 5044,5785 L 5050,5789"/>
       <path fill="rgb(0,0,0)" stroke="none" d="M 5200,5900 L 4980,5862 5098,5701 5200,5900 Z M 5176,5882 L 5096,5726 5003,5853 5176,5882 Z"/>
      </g>
     </g>
    </g>
   </g>
  </g>
 </g>
</svg>